{"title":"The Family 2013 DVD-R (RLG)","uid":9329573,"size":4665888768,"categoryP":"video","categoryS":"movies_dvdr","magnet":"?xt=urn:btih:90bc3023eed1f9194e07c0c9629de8eb43eaedf4&amp;dn=The+Family+2013+DVD-R+%28RLG%29&amp;tr=udp%3A%2F%2Ftracker.openbittorrent.com%3A80&amp;tr=udp%3A%2F%2Fopen.demonii.com%3A1337&amp;tr=udp%3A%2F%2Ftracker.coppersurfer.tk%3A6969&amp;tr=udp%3A%2F%2Fexodus.desync.com%3A6969","seeders":0,"leechers":0,"uploader":"RedLegsGreaves","files":-1,"time":1386701941,"description":" &lt;a href=&quot;http://www.imdb.com/title/tt2404311/&quot; rel=&quot;nofollow&quot; target=&quot;_NEW&quot;&gt;http://www.imdb.com/title/tt2404311/&lt;/a&gt;\nThe Manzoni family, a notorious mafia clan, is relocated to Normandy, France under the witness protection program, where fitting in soon becomes challenging as their old habits die hard.\n\nLanguage: English\nSubtitles: English, Spanish (Latin America)\n\nFor Newer Users.\nSimply Drag downloaded folder to your Media Player. This is a NTSC DVD.\nThis is ripped so you would have best quality, menu, bonus/special feature, language options etc. (dvds may or may not have all features)\n\n\n\nVideo\nID : 224 (0xE0)\nFormat : MPEG Video\nFormat version : Version 2\nFormat profile : Main@Main\nFormat settings, BVOP : No\nFormat settings, Matrix : Custom\nFormat settings, GOP : Variable\nDuration : 42s 610ms\nBit rate mode : Variable\nBit rate : 6 650 Kbps\nWidth : 720 pixels\nHeight : 480 pixels\nDisplay aspect ratio : 16:9\nFrame rate : 29.970 fps\nStandard : NTSC\nColor space : YUV\nChroma subsampling : 4:2:0\nBit depth : 8 bits\nScan type : Progressive\nScan order : Top Field First\nCompression mode : Lossy\nBits/(Pixel*Frame) : 0.642\nStream size : 33.8 MiB (95%)\nColor primaries : BT.601 NTSC\nTransfer characteristics : BT.601\nMatrix coefficients : BT.601\n\nAudio\nID : 189 (0xBD)-128 (0x80)\nFormat : AC-3\nFormat/Info : Audio Coding 3\nMode extension : CM (complete main)\nFormat settings, Endianness : Big\nMuxing mode : DVD-Video\nDuration : 42s 688ms\nBit rate mode : Constant\nBit rate : 192 Kbps\nChannel count : 2 channels\nChannel positions : Front: L R\nSampling rate : 48.0 KHz\nBit depth : 16 bits\nCompression mode : Lossy\nDelay relative to video : -49ms\nStream size : 1 001 KiB (3%)","torrent":{"xt":"urn:btih:90bc3023eed1f9194e07c0c9629de8eb43eaedf4","amp;dn":"The+Family+2013+DVD-R+%28RLG%29","amp;tr":["udp%3A%2F%2Ftracker.openbittorrent.com%3A80","udp%3A%2F%2Fopen.demonii.com%3A1337","udp%3A%2F%2Ftracker.coppersurfer.tk%3A6969","udp%3A%2F%2Fexodus.desync.com%3A6969"],"infoHash":"90bc3023eed1f9194e07c0c9629de8eb43eaedf4","infoHashBuffer":{"type":"Buffer","data":[144,188,48,35,238,209,249,25,78,7,192,201,98,157,232,235,67,234,237,244]},"announce":[],"urlList":[]}}